<svg viewBox="0 0 4.7932 8.3212" fill="none" xmlns="http://www.w3.org/2000/svg" xmlns:xlink="http://www.w3.org/1999/xlink" x="0" y="0"><path id="Vector" fill-rule="evenodd" clip-rule="evenodd" d="M13.6102,7.711c0.117,0.1172 0.183,0.2762 0.183,0.4419c0,0.1657 -0.066,0.3247 -0.183,0.4419l-3.536,3.5356c-0.057,0.0597 -0.126,0.1073 -0.203,0.1401c-0.076,0.0327 -0.158,0.05 -0.241,0.0507c-0.083,0.0007 -0.165,-0.0151 -0.242,-0.0465c-0.077,-0.0314 -0.146,-0.0779 -0.205,-0.1365c-0.059,-0.0587 -0.105,-0.1285 -0.137,-0.2053c-0.031,-0.0768 -0.047,-0.1591 -0.046,-0.2421c0.001,-0.083 0.018,-0.165 0.051,-0.2413c0.032,-0.0762 0.08,-0.1452 0.14,-0.2028l3.093,-3.0938l-3.093,-3.0937c-0.114,-0.1179 -0.177,-0.2758 -0.176,-0.4397c0.002,-0.1638 0.067,-0.3206 0.183,-0.4365c0.116,-0.1159 0.273,-0.1816 0.437,-0.183c0.164,-0.0014 0.321,0.0616 0.439,0.1754z" fill="currentColor"/></svg>