<svg viewBox="0 0 143.6508 40" fill="none" xmlns="http://www.w3.org/2000/svg" xmlns:xlink="http://www.w3.org/1999/xlink" x="0" y="0"><g id="Fictional Company Logo_4">
<g id="Mark_3">
<g id="Group 83">
<g id="Group 82">
<path id="Rectangle 75" d="M29.0002,16l-16,8v8M29.0002,24l-8,4" stroke="white" stroke-width="2" stroke-linejoin="round"/>
<path id="Rectangle 76" d="M29.0002,32l-16,-8v8l16,8z" stroke="white" stroke-width="2" stroke-linejoin="round"/>
<path id="Rectangle 77" d="M45.0002,24v-8l-16,-8v8l8,4" stroke="white" stroke-width="2" stroke-linejoin="round"/>
<path id="Rectangle 78" d="M29.0002,24l16,-8v8l-16,8z" stroke="white" stroke-width="2" stroke-linejoin="round"/>
</g>
</g>
</g>
<g id="EpicDev">
<path d="M57.0002,31.126v-18.48h13.863v3.108h-10v4.592h7.87v2.968h-7.87v4.704h10.39v3.108z" fill="white"/>
<path d="M72.3232,37.006v-19.88h3.45l0.25,4.452l-0.48,-0.504c0.17,-0.821 0.48,-1.549 0.93,-2.184c0.46,-0.635 1.05,-1.129 1.76,-1.484c0.71,-0.373 1.5,-0.56 2.38,-0.56c1.14,0 2.16,0.289 3.05,0.868c0.9,0.579 1.6,1.409 2.1,2.492c0.53,1.064 0.79,2.361 0.79,3.892c0,1.531 -0.26,2.847 -0.79,3.948c-0.52,1.083 -1.24,1.913 -2.15,2.492c-0.9,0.579 -1.93,0.868 -3.08,0.868c-1.23,0 -2.26,-0.345 -3.08,-1.036c-0.81,-0.691 -1.36,-1.559 -1.65,-2.604l0.36,-0.588v9.828zM79.4132,28.466c1.02,0 1.83,-0.364 2.41,-1.092c0.59,-0.747 0.89,-1.829 0.89,-3.248c0,-1.419 -0.29,-2.492 -0.87,-3.22c-0.56,-0.747 -1.35,-1.12 -2.38,-1.12c-0.65,0 -1.23,0.177 -1.73,0.532c-0.49,0.336 -0.87,0.831 -1.15,1.484c-0.28,0.635 -0.42,1.409 -0.42,2.324c0,0.877 0.13,1.652 0.39,2.324c0.26,0.653 0.64,1.157 1.12,1.512c0.51,0.336 1.08,0.504 1.74,0.504z" fill="white"/>
<path d="M89.8132,15.11c-0.8,0 -1.4,-0.168 -1.79,-0.504c-0.39,-0.355 -0.59,-0.868 -0.59,-1.54c0,-0.691 0.2,-1.204 0.59,-1.54c0.39,-0.355 0.99,-0.532 1.79,-0.532c0.8,0 1.4,0.177 1.79,0.532c0.39,0.336 0.59,0.849 0.59,1.54c0,0.672 -0.2,1.185 -0.59,1.54c-0.39,0.336 -0.99,0.504 -1.79,0.504zM91.7132,17.126v14h-3.83v-14z" fill="white"/>
<path d="M100.1432,16.846c1.25,0 2.3,0.187 3.16,0.56c0.88,0.355 1.58,0.849 2.1,1.484c0.54,0.616 0.92,1.307 1.15,2.072l-3.59,1.288c-0.18,-0.84 -0.5,-1.475 -0.95,-1.904c-0.45,-0.429 -1.05,-0.644 -1.82,-0.644c-0.71,0 -1.31,0.168 -1.82,0.504c-0.5,0.317 -0.88,0.812 -1.15,1.484c-0.26,0.653 -0.39,1.475 -0.39,2.464c0,0.989 0.13,1.811 0.39,2.464c0.28,0.653 0.68,1.139 1.18,1.456c0.52,0.317 1.13,0.476 1.82,0.476c0.56,0 1.04,-0.093 1.43,-0.28c0.39,-0.205 0.71,-0.495 0.95,-0.868c0.26,-0.373 0.44,-0.821 0.53,-1.344l3.47,1.12c-0.2,0.84 -0.58,1.577 -1.14,2.212c-0.56,0.635 -1.28,1.129 -2.16,1.484c-0.88,0.355 -1.89,0.532 -3.05,0.532c-1.44,0 -2.71,-0.289 -3.81,-0.868c-1.1,-0.579 -1.95,-1.409 -2.55,-2.492c-0.59,-1.083 -0.89,-2.389 -0.89,-3.92c0,-1.531 0.3,-2.837 0.89,-3.92c0.6,-1.083 1.44,-1.913 2.52,-2.492c1.09,-0.579 2.33,-0.868 3.73,-0.868z" fill="white"/>
<path d="M115.1232,12.646c2.89,0 5.13,0.803 6.72,2.408c1.58,1.587 2.38,3.864 2.38,6.832c0,2.949 -0.8,5.227 -2.38,6.832c-1.59,1.605 -3.83,2.408 -6.72,2.408h-7.14v-18.48zM114.9232,28.046c1.76,0 3.07,-0.523 3.95,-1.568c0.9,-1.064 1.34,-2.595 1.34,-4.592c0,-1.997 -0.44,-3.519 -1.34,-4.564c-0.88,-1.064 -2.19,-1.596 -3.95,-1.596h-3.08v12.32z" fill="white"/>
<path d="M132.2132,31.406c-1.48,0 -2.77,-0.289 -3.87,-0.868c-1.08,-0.579 -1.92,-1.409 -2.52,-2.492c-0.6,-1.083 -0.89,-2.389 -0.89,-3.92c0,-1.531 0.29,-2.837 0.89,-3.92c0.6,-1.083 1.43,-1.913 2.49,-2.492c1.09,-0.579 2.32,-0.868 3.7,-0.868c1.42,0 2.62,0.289 3.61,0.868c0.99,0.56 1.75,1.335 2.27,2.324c0.52,0.971 0.78,2.081 0.78,3.332c0,0.373 -0.01,0.728 -0.02,1.064c-0.02,0.336 -0.05,0.635 -0.09,0.896h-11.17v-2.66h9.49l-1.85,0.672c0,-1.176 -0.27,-2.081 -0.81,-2.716c-0.52,-0.635 -1.27,-0.952 -2.24,-0.952c-0.71,0 -1.32,0.168 -1.85,0.504c-0.5,0.336 -0.88,0.84 -1.14,1.512c-0.27,0.653 -0.4,1.484 -0.4,2.492c0,0.989 0.14,1.811 0.42,2.464c0.3,0.635 0.71,1.111 1.24,1.428c0.54,0.317 1.18,0.476 1.93,0.476c0.82,0 1.48,-0.159 1.99,-0.476c0.5,-0.317 0.89,-0.756 1.17,-1.316l3.05,1.176c-0.29,0.728 -0.75,1.353 -1.37,1.876c-0.6,0.523 -1.31,0.924 -2.15,1.204c-0.83,0.261 -1.71,0.392 -2.66,0.392z" fill="white"/>
<path d="M148.6732,17.126h3.98l-5.32,14h-4.43l-5.32,-14h4.12l3.44,11.06z" fill="white"/>
</g>
</g></svg>