<svg viewBox="0 0 29.1395 39.63" fill="none" xmlns="http://www.w3.org/2000/svg" xmlns:xlink="http://www.w3.org/1999/xlink" x="0" y="0"><g id="Group 76">
<path id="Ellipse 59 (Stroke)" fill-rule="evenodd" clip-rule="evenodd" d="M23.5698,28.2829c5.36,0 9.71,-4.349 9.71,-9.713c0,-5.365 -4.35,-9.713 -9.71,-9.713h-9.71v9.713c0,5.364 4.35,9.713 9.71,9.713zM38.1398,18.5699c0,8.046 -6.52,14.57 -14.57,14.57c-8.05,0 -14.57,-6.524 -14.57,-14.57v-14.57h14.57c8.05,0 14.57,6.523 14.57,14.57z" fill="currentColor"/>
<path id="Ellipse 59 (Stroke)_2" fill-rule="evenodd" clip-rule="evenodd" d="M23.5698,38.7729c5.36,0 9.71,-4.348 9.71,-9.713c0,-5.364 -4.35,-9.713 -9.71,-9.713h-9.71v9.713c0,5.365 4.35,9.713 9.71,9.713zM38.1398,29.0599c0,8.047 -6.52,14.57 -14.57,14.57c-8.05,0 -14.57,-6.523 -14.57,-14.57v-14.569h14.57c8.05,0 14.57,6.523 14.57,14.569z" fill="currentColor"/>
</g></svg>