<svg viewBox="0 0 12.2733 12.2733" fill="none" xmlns="http://www.w3.org/2000/svg" xmlns:xlink="http://www.w3.org/1999/xlink" x="0" y="0"><path id="Vector_2" fill-rule="evenodd" clip-rule="evenodd" d="M15.147,11.3048l4.71,4.7142c0.16,0.1518 0.37,0.2358 0.59,0.2339c0.22,-0.0019 0.43,-0.0896 0.58,-0.2441c0.16,-0.1545 0.24,-0.3635 0.25,-0.582c0,-0.2185 -0.09,-0.429 -0.24,-0.5862l-4.71,-4.7141l4.71,-4.7142c0.15,-0.1572 0.24,-0.3677 0.24,-0.5862c-0.01,-0.2185 -0.09,-0.4275 -0.25,-0.582c-0.15,-0.1545 -0.36,-0.2421 -0.58,-0.244c-0.22,-0.0019 -0.43,0.0821 -0.59,0.2339l-4.71,4.7141l-4.71,-4.7141c-0.16,-0.1481 -0.37,-0.2289 -0.59,-0.2254c-0.21,0.0035 -0.42,0.0911 -0.57,0.2442c-0.16,0.1531 -0.24,0.3597 -0.25,0.5761c0,0.2164 0.08,0.4256 0.23,0.5834l4.71,4.7142l-4.71,4.7141c-0.08,0.0769 -0.15,0.1689 -0.19,0.2705c-0.04,0.1017 -0.07,0.211 -0.07,0.3217c0,0.1106 0.02,0.2204 0.07,0.3228c0.04,0.1024 0.1,0.1954 0.18,0.2737c0.08,0.0782 0.17,0.1401 0.27,0.182c0.1,0.0419 0.21,0.063 0.32,0.062c0.11,-0.0009 0.22,-0.0239 0.33,-0.0676c0.1,-0.0437 0.19,-0.1071 0.27,-0.1867z" fill="currentColor"/></svg>