<svg viewBox="0 0 167.6595 40" fill="none" xmlns="http://www.w3.org/2000/svg" xmlns:xlink="http://www.w3.org/1999/xlink" x="0" y="0"><g id="Fictional Company Logo_2">
<g id="Mark">
<g id="Group 85">
<rect id="Rectangle 80" x="32.4006" y="13.799999999999955" width="6.8" height="6.8" fill="currentColor"/>
<rect id="Rectangle 81" x="25.59960000000001" y="20.600000000000023" width="6.8" height="6.8" fill="currentColor"/>
<rect id="Rectangle 82" x="25.59960000000001" y="20.600000000000023" width="6.8" height="6.8" fill="currentColor"/>
<rect id="Rectangle 83" x="32.4006" y="27.399999999999977" width="6.8" height="6.8" fill="currentColor"/>
<rect id="Rectangle 84" x="25.59960000000001" y="34.200000000000045" width="6.8" height="6.8" fill="currentColor"/>
<rect id="Rectangle 86" x="18.799599999999998" y="34.200000000000045" width="6.8" height="6.8" fill="currentColor"/>
<g id="Group 84">
<rect id="Rectangle 79" x="25.59960000000001" y="7" width="6.8" height="6.8" fill="currentColor"/>
<path id="Subtract" d="M18.7996,7h6.8v6.8h-6.8z" fill="currentColor"/>
</g>
</g>
</g>
<g id="dataBites.">
<path d="M60.4556,32.896h-0.16c-0.362,0.981 -0.96,1.749 -1.792,2.304c-0.81,0.555 -1.77,0.832 -2.88,0.832c-2.112,0 -3.744,-0.757 -4.896,-2.272c-1.152,-1.536 -1.728,-3.68 -1.728,-6.432c0,-2.752 0.576,-4.885 1.728,-6.4c1.152,-1.536 2.784,-2.304 4.896,-2.304c1.11,0 2.07,0.277 2.88,0.832c0.832,0.533 1.43,1.301 1.792,2.304h0.16v-9.792h3.488v23.68h-3.488zM56.6796,33.024c1.067,0 1.963,-0.256 2.688,-0.768c0.726,-0.533 1.088,-1.227 1.088,-2.08v-5.696c0,-0.853 -0.362,-1.536 -1.088,-2.048c-0.725,-0.533 -1.621,-0.8 -2.688,-0.8c-1.216,0 -2.186,0.395 -2.912,1.184c-0.725,0.768 -1.088,1.792 -1.088,3.072v2.88c0,1.28 0.363,2.315 1.088,3.104c0.726,0.768 1.696,1.152 2.912,1.152z" fill="currentColor"/>
<path d="M79.1216,35.648c-0.917,0 -1.621,-0.256 -2.112,-0.768c-0.491,-0.533 -0.789,-1.205 -0.896,-2.016h-0.16c-0.32,1.045 -0.907,1.835 -1.76,2.368c-0.853,0.533 -1.888,0.8 -3.104,0.8c-1.728,0 -3.061,-0.448 -4,-1.344c-0.917,-0.896 -1.376,-2.101 -1.376,-3.616c0,-1.664 0.597,-2.912 1.792,-3.744c1.216,-0.832 2.987,-1.248 5.312,-1.248h3.008v-1.408c0,-1.024 -0.277,-1.813 -0.832,-2.368c-0.555,-0.555 -1.419,-0.832 -2.592,-0.832c-0.981,0 -1.781,0.213 -2.4,0.64c-0.619,0.427 -1.141,0.971 -1.568,1.632l-2.08,-1.888c0.555,-0.939 1.333,-1.707 2.336,-2.304c1.003,-0.619 2.315,-0.928 3.936,-0.928c2.155,0 3.808,0.501 4.96,1.504c1.152,1.003 1.728,2.443 1.728,4.32v8.352h1.76v2.848zM72.0816,33.376c1.088,0 1.984,-0.235 2.688,-0.704c0.704,-0.491 1.056,-1.141 1.056,-1.952v-2.4h-2.944c-2.411,0 -3.616,0.747 -3.616,2.24v0.576c0,0.747 0.245,1.312 0.736,1.696c0.512,0.363 1.205,0.544 2.08,0.544z" fill="currentColor"/>
<path d="M87.0066,35.648c-1.216,0 -2.134,-0.309 -2.752,-0.928c-0.619,-0.64 -0.928,-1.536 -0.928,-2.688v-10.176h-2.592v-2.848h1.408c0.576,0 0.97,-0.128 1.184,-0.384c0.234,-0.256 0.352,-0.672 0.352,-1.248v-2.912h3.136v4.544h3.488v2.848h-3.488v10.944h3.232v2.848z" fill="currentColor"/>
<path d="M104.2776,35.648c-0.917,0 -1.621,-0.256 -2.112,-0.768c-0.491,-0.533 -0.789,-1.205 -0.896,-2.016h-0.16c-0.32,1.045 -0.907,1.835 -1.76,2.368c-0.853,0.533 -1.888,0.8 -3.104,0.8c-1.728,0 -3.061,-0.448 -4,-1.344c-0.917,-0.896 -1.376,-2.101 -1.376,-3.616c0,-1.664 0.597,-2.912 1.792,-3.744c1.216,-0.832 2.987,-1.248 5.312,-1.248h3.008v-1.408c0,-1.024 -0.277,-1.813 -0.832,-2.368c-0.555,-0.555 -1.419,-0.832 -2.592,-0.832c-0.981,0 -1.781,0.213 -2.4,0.64c-0.619,0.427 -1.141,0.971 -1.568,1.632l-2.08,-1.888c0.555,-0.939 1.333,-1.707 2.336,-2.304c1.003,-0.619 2.315,-0.928 3.936,-0.928c2.155,0 3.808,0.501 4.96,1.504c1.152,1.003 1.728,2.443 1.728,4.32v8.352h1.76v2.848zM97.2376,33.376c1.088,0 1.984,-0.235 2.688,-0.704c0.704,-0.491 1.056,-1.141 1.056,-1.952v-2.4h-2.944c-2.411,0 -3.616,0.747 -3.616,2.24v0.576c0,0.747 0.245,1.312 0.736,1.696c0.512,0.363 1.205,0.544 2.08,0.544z" fill="currentColor"/>
<path d="M107.9046,13.312h9.888c1.856,0 3.306,0.523 4.352,1.568c1.066,1.045 1.6,2.443 1.6,4.192c0,0.832 -0.118,1.547 -0.352,2.144c-0.235,0.576 -0.534,1.056 -0.896,1.44c-0.363,0.363 -0.779,0.64 -1.248,0.832c-0.47,0.171 -0.928,0.277 -1.376,0.32v0.192c0.448,0.021 0.938,0.128 1.472,0.32c0.554,0.192 1.066,0.501 1.536,0.928c0.469,0.405 0.864,0.939 1.184,1.6c0.32,0.64 0.48,1.429 0.48,2.368c0,0.896 -0.15,1.739 -0.448,2.528c-0.278,0.789 -0.672,1.472 -1.184,2.048c-0.512,0.576 -1.12,1.035 -1.824,1.376c-0.704,0.32 -1.472,0.48 -2.304,0.48h-10.88zM111.5206,32.544h6.208c0.938,0 1.674,-0.245 2.208,-0.736c0.533,-0.491 0.8,-1.195 0.8,-2.112v-1.088c0,-0.917 -0.267,-1.621 -0.8,-2.112c-0.534,-0.491 -1.27,-0.736 -2.208,-0.736h-6.208zM111.5206,22.752h5.6c0.896,0 1.589,-0.224 2.08,-0.672c0.49,-0.469 0.736,-1.131 0.736,-1.984v-1.024c0,-0.853 -0.246,-1.504 -0.736,-1.952c-0.491,-0.469 -1.184,-0.704 -2.08,-0.704h-5.6z" fill="currentColor"/>
<path d="M126.7416,19.008h3.488v16.64h-3.488z" fill="currentColor"/>
<path d="M137.8186,35.648c-1.216,0 -2.133,-0.309 -2.752,-0.928c-0.619,-0.64 -0.928,-1.536 -0.928,-2.688v-10.176h-2.592v-2.848h1.408c0.576,0 0.971,-0.128 1.184,-0.384c0.235,-0.256 0.352,-0.672 0.352,-1.248v-2.912h3.136v4.544h3.488v2.848h-3.488v10.944h3.232v2.848z" fill="currentColor"/>
<path d="M149.3016,36.032c-1.195,0 -2.262,-0.203 -3.2,-0.608c-0.939,-0.405 -1.739,-0.981 -2.4,-1.728c-0.662,-0.768 -1.174,-1.685 -1.536,-2.752c-0.342,-1.088 -0.512,-2.293 -0.512,-3.616c0,-1.323 0.17,-2.517 0.512,-3.584c0.362,-1.088 0.874,-2.005 1.536,-2.752c0.661,-0.768 1.461,-1.355 2.4,-1.76c0.938,-0.405 2.005,-0.608 3.2,-0.608c1.216,0 2.282,0.213 3.2,0.64c0.938,0.427 1.717,1.024 2.336,1.792c0.618,0.747 1.077,1.621 1.376,2.624c0.32,1.003 0.48,2.08 0.48,3.232v1.312h-11.424v0.544c0,1.28 0.373,2.336 1.12,3.168c0.768,0.811 1.856,1.216 3.264,1.216c1.024,0 1.888,-0.224 2.592,-0.672c0.704,-0.448 1.301,-1.056 1.792,-1.824l2.048,2.016c-0.619,1.024 -1.515,1.845 -2.688,2.464c-1.174,0.597 -2.539,0.896 -4.096,0.896zM149.3016,21.344c-0.598,0 -1.152,0.107 -1.664,0.32c-0.491,0.213 -0.918,0.512 -1.28,0.896c-0.342,0.384 -0.608,0.843 -0.8,1.376c-0.192,0.533 -0.288,1.12 -0.288,1.76v0.224h7.744v-0.32c0,-1.28 -0.331,-2.304 -0.992,-3.072c-0.662,-0.789 -1.568,-1.184 -2.72,-1.184z" fill="currentColor"/>
<path d="M163.8346,36.032c-1.579,0 -2.901,-0.277 -3.968,-0.832c-1.067,-0.555 -1.995,-1.323 -2.784,-2.304l2.24,-2.048c0.619,0.747 1.301,1.333 2.048,1.76c0.768,0.405 1.653,0.608 2.656,0.608c1.024,0 1.781,-0.192 2.272,-0.576c0.512,-0.405 0.768,-0.96 0.768,-1.664c0,-0.533 -0.181,-0.981 -0.544,-1.344c-0.341,-0.384 -0.949,-0.629 -1.824,-0.736l-1.536,-0.192c-1.707,-0.213 -3.051,-0.704 -4.032,-1.472c-0.96,-0.789 -1.44,-1.952 -1.44,-3.488c0,-0.811 0.149,-1.525 0.448,-2.144c0.299,-0.64 0.715,-1.173 1.248,-1.6c0.555,-0.448 1.205,-0.789 1.952,-1.024c0.768,-0.235 1.611,-0.352 2.528,-0.352c1.493,0 2.709,0.235 3.648,0.704c0.96,0.469 1.813,1.12 2.56,1.952l-2.144,2.048c-0.427,-0.512 -0.992,-0.949 -1.696,-1.312c-0.683,-0.384 -1.472,-0.576 -2.368,-0.576c-0.96,0 -1.675,0.192 -2.144,0.576c-0.448,0.384 -0.672,0.885 -0.672,1.504c0,0.64 0.203,1.12 0.608,1.44c0.405,0.32 1.056,0.555 1.952,0.704l1.536,0.192c1.835,0.277 3.168,0.821 4,1.632c0.853,0.789 1.28,1.856 1.28,3.2c0,0.811 -0.16,1.547 -0.48,2.208c-0.299,0.64 -0.736,1.195 -1.312,1.664c-0.576,0.469 -1.269,0.832 -2.08,1.088c-0.811,0.256 -1.717,0.384 -2.72,0.384z" fill="currentColor"/>
<path d="M174.3236,36.032c-0.789,0 -1.376,-0.203 -1.76,-0.608c-0.384,-0.427 -0.576,-0.949 -0.576,-1.568v-0.48c0,-0.619 0.192,-1.131 0.576,-1.536c0.384,-0.427 0.971,-0.64 1.76,-0.64c0.789,0 1.376,0.213 1.76,0.64c0.384,0.405 0.576,0.917 0.576,1.536v0.48c0,0.619 -0.192,1.141 -0.576,1.568c-0.384,0.405 -0.971,0.608 -1.76,0.608z" fill="currentColor"/>
</g>
</g></svg>