<svg viewBox="0 0 24.3298 23.382" fill="none" xmlns="http://www.w3.org/2000/svg" xmlns:xlink="http://www.w3.org/1999/xlink" x="0" y="0"><defs><linearGradient id="paint5_linear_2001_20520" x1="14.647999999999996" y1="27.382199999999997" x2="32.4962" y2="6.219399999999993" gradientUnits="userSpaceOnUse">
<stop stop-color="#441B91"/>
<stop offset="0.671875" stop-color="#C490FF"/>
<stop offset="1" stop-color="#4C0385"/>
</linearGradient></defs><g id="Vector_3">
<path d="M27.0552,4l1.429,2.6789l2.679,1.4288l-2.679,1.4287l-1.429,2.6789l-1.428,-2.6789l-2.679,-1.4287l2.679,-1.4288zM17.3056,7.3855l2.8886,5.4166l5.417,2.8889l-5.417,2.8889l-2.8886,5.4167l-2.8889,-5.4167l-5.4167,-2.8889l5.4167,-2.8889zM29.9442,20.3855l-1.805,-3.3854l-1.806,3.3854l-3.385,1.8055l3.385,1.8056l1.806,3.3856l1.805,-3.3856l3.386,-1.8056z" fill="white"/>
<path d="M27.0552,4l1.429,2.6789l2.679,1.4288l-2.679,1.4287l-1.429,2.6789l-1.428,-2.6789l-2.679,-1.4287l2.679,-1.4288zM17.3056,7.3855l2.8886,5.4166l5.417,2.8889l-5.417,2.8889l-2.8886,5.4167l-2.8889,-5.4167l-5.4167,-2.8889l5.4167,-2.8889zM29.9442,20.3855l-1.805,-3.3854l-1.806,3.3854l-3.385,1.8055l3.385,1.8056l1.806,3.3856l1.805,-3.3856l3.386,-1.8056z" fill="url(#paint5_linear_2001_20520)"/>
</g></svg>