<svg viewBox="0 0 34.8567 24" fill="none" xmlns="http://www.w3.org/2000/svg" xmlns:xlink="http://www.w3.org/1999/xlink" x="0" y="0"><g id="Group 79">
<path id="Rectangle 68" d="M9.0001,22.857c0,-2.84 2.302,-5.143 5.143,-5.143c2.84,0 5.143,2.303 5.143,5.143c0,2.84 -2.303,5.143 -5.143,5.143c-2.841,0 -5.143,-2.303 -5.143,-5.143z" fill="currentColor"/>
<g id="Group 81">
<path id="Rectangle 69" d="M21.2861,16c0,-2.841 2.302,-5.143 5.142,-5.143c2.841,0 5.143,2.302 5.143,5.143v6.857c0,2.84 -2.302,5.143 -5.143,5.143c-2.84,0 -5.142,-2.303 -5.142,-5.143z" fill="currentColor"/>
<path id="Rectangle 70" d="M21.2861,14.286c0,-2.84 2.302,-5.143 5.142,-5.143c2.841,0 5.143,2.303 5.143,5.143c0,2.84 -2.302,5.143 -5.143,5.143c-2.84,0 -5.142,-2.303 -5.142,-5.143z" fill="currentColor"/>
</g>
<g id="Group 80">
<path id="Rectangle 71" d="M33.5711,9.143c0,-2.84 2.302,-5.143 5.143,-5.143c2.84,0 5.143,2.303 5.143,5.143v13.714c0,2.84 -2.303,5.143 -5.143,5.143c-2.841,0 -5.143,-2.303 -5.143,-5.143z" fill="currentColor"/>
<path id="Rectangle 72" d="M33.5711,9.143c0,-2.84 2.302,-5.143 5.143,-5.143c2.84,0 5.143,2.303 5.143,5.143c0,2.84 -2.303,5.143 -5.143,5.143c-2.841,0 -5.143,-2.303 -5.143,-5.143z" fill="currentColor"/>
</g>
</g></svg>